<?xml version="1.0" encoding="UTF-8"?>
<svg fill="none" version="1.1" viewBox="0 0 48 48" xml:space="preserve" xmlns="http://www.w3.org/2000/svg" xmlns:xlink="http://www.w3.org/1999/xlink"><defs><linearGradient id="linearGradient199"><stop stop-color="#808080" offset=".34044"/><stop stop-color="#d3d3d3" offset=".48907"/><stop stop-color="#808080" offset=".59258"/><stop stop-color="#4f4f4f" offset=".72508"/></linearGradient><linearGradient id="linearGradient190"><stop offset="0"/><stop stop-color="#ccc" stop-opacity="0" offset="1"/></linearGradient><linearGradient id="linearGradient689" x1="82.147" x2="133.09" y1="154.36" y2="155.31" gradientUnits="userSpaceOnUse"><stop stop-color="#808080" offset=".24366"/><stop stop-color="#d3d3d3" offset=".41111"/><stop stop-color="#808080" offset=".57914"/><stop stop-color="#4f4f4f" offset=".74659"/></linearGradient><linearGradient id="linearGradient95" x1="99.633" x2="107.33" y1="151.48" y2="151.48" gradientUnits="userSpaceOnUse" xlink:href="#linearGradient199"/><linearGradient id="linearGradient96" x1="100.03" x2="107.73" y1="174.59" y2="174.59" gradientUnits="userSpaceOnUse" xlink:href="#linearGradient199"/><linearGradient id="linearGradient120" x1="99.347" x2="107.73" y1="147.96" y2="147.96" gradientUnits="userSpaceOnUse" xlink:href="#linearGradient199"/><linearGradient id="linearGradient154" x1="98.75" x2="108.51" y1="173.15" y2="173.15" gradientUnits="userSpaceOnUse" xlink:href="#linearGradient199"/><linearGradient id="linearGradient155" x1="98.75" x2="108.51" y1="172.1" y2="172.1" gradientUnits="userSpaceOnUse" xlink:href="#linearGradient199"/><linearGradient id="linearGradient156" x1="98.75" x2="108.51" y1="171.13" y2="171.13" gradientUnits="userSpaceOnUse" xlink:href="#linearGradient199"/><linearGradient id="linearGradient157" x1="98.75" x2="108.51" y1="170.13" y2="170.13" gradientUnits="userSpaceOnUse" xlink:href="#linearGradient199"/><linearGradient id="linearGradient158" x1="98.75" x2="108.51" y1="169.13" y2="169.13" gradientUnits="userSpaceOnUse" xlink:href="#linearGradient199"/><linearGradient id="linearGradient160" x1="98.75" x2="108.51" y1="167.15" y2="167.15" gradientUnits="userSpaceOnUse" xlink:href="#linearGradient199"/><linearGradient id="linearGradient161" x1="98.75" x2="108.51" y1="166.13" y2="166.13" gradientUnits="userSpaceOnUse" xlink:href="#linearGradient199"/><linearGradient id="linearGradient162" x1="98.75" x2="108.51" y1="165.11" y2="165.11" gradientUnits="userSpaceOnUse" xlink:href="#linearGradient199"/><linearGradient id="linearGradient163" x1="98.75" x2="108.51" y1="164.12" y2="164.12" gradientUnits="userSpaceOnUse" xlink:href="#linearGradient199"/><linearGradient id="linearGradient164" x1="98.75" x2="108.51" y1="163.1" y2="163.1" gradientUnits="userSpaceOnUse" xlink:href="#linearGradient199"/><linearGradient id="linearGradient165" x1="98.75" x2="108.51" y1="162.13" y2="162.13" gradientUnits="userSpaceOnUse" xlink:href="#linearGradient199"/><linearGradient id="linearGradient166" x1="98.75" x2="108.51" y1="161.13" y2="161.13" gradientUnits="userSpaceOnUse" xlink:href="#linearGradient199"/><linearGradient id="linearGradient167" x1="98.75" x2="108.51" y1="160.15" y2="160.15" gradientUnits="userSpaceOnUse" xlink:href="#linearGradient199"/><linearGradient id="linearGradient168" x1="98.75" x2="108.51" y1="159.15" y2="159.15" gradientUnits="userSpaceOnUse" xlink:href="#linearGradient199"/><linearGradient id="linearGradient170" x1="98.75" x2="108.51" y1="157.12" y2="157.12" gradientUnits="userSpaceOnUse" xlink:href="#linearGradient199"/><linearGradient id="linearGradient171" x1="98.75" x2="108.51" y1="156.13" y2="156.13" gradientUnits="userSpaceOnUse" xlink:href="#linearGradient199"/><linearGradient id="linearGradient172" x1="98.75" x2="108.51" y1="155.08" y2="155.08" gradientUnits="userSpaceOnUse" xlink:href="#linearGradient199"/><linearGradient id="linearGradient174" x1="98.75" x2="108.51" y1="152.97" y2="152.97" gradientUnits="userSpaceOnUse" xlink:href="#linearGradient199"/><linearGradient id="linearGradient175" x1="98.75" x2="108.51" y1="151.92" y2="151.92" gradientUnits="userSpaceOnUse" xlink:href="#linearGradient199"/><linearGradient id="linearGradient179" x1="98.75" x2="108.51" y1="154.02" y2="154.02" gradientUnits="userSpaceOnUse" xlink:href="#linearGradient199"/><linearGradient id="linearGradient180" x1="98.75" x2="108.51" y1="158.13" y2="158.13" gradientUnits="userSpaceOnUse" xlink:href="#linearGradient199"/><linearGradient id="linearGradient187" x1="98.75" x2="108.51" y1="168.15" y2="168.15" gradientUnits="userSpaceOnUse" xlink:href="#linearGradient199"/><linearGradient id="linearGradient2" x1="98.75" x2="108.51" y1="174.11" y2="174.11" gradientUnits="userSpaceOnUse" xlink:href="#linearGradient199"/><linearGradient id="linearGradient58" x1="94.957" x2="112.12" y1="140.18" y2="140.18" gradientUnits="userSpaceOnUse" xlink:href="#linearGradient199"/><linearGradient id="linearGradient189" x1="82.147" x2="133.09" y1="154.36" y2="155.31" gradientUnits="userSpaceOnUse" xlink:href="#linearGradient199"/><linearGradient id="linearGradient191" x1="-45.495" x2="-45.629" y1="184.27" y2="188.97" gradientTransform="matrix(.94036 0 0 .94438 226.35 -129.01)" gradientUnits="userSpaceOnUse" xlink:href="#linearGradient190"/><linearGradient id="linearGradient192" x1="-45.495" x2="-45.629" y1="184.27" y2="188.97" gradientTransform="matrix(.94036 0 0 .94438 -140.41 -216.73)" gradientUnits="userSpaceOnUse" xlink:href="#linearGradient190"/><linearGradient id="linearGradient200" x1="-45.495" x2="-45.629" y1="184.27" y2="188.97" gradientTransform="matrix(.94036 0 0 .94438 3.6475 .34074)" gradientUnits="userSpaceOnUse" xlink:href="#linearGradient190"/><linearGradient id="linearGradient201" x1="-45.495" x2="-45.629" y1="184.27" y2="188.97" gradientTransform="matrix(.94036 0 0 .94438 227.91 -151.81)" gradientUnits="userSpaceOnUse" xlink:href="#linearGradient190"/></defs><rect width="48" height="48" rx="9" fill="#4f4f4f"/><rect x="3" y="3" width="42" height="42" rx="7" fill="#d3d3d3" stroke="#333" stroke-width="2"/><g transform="matrix(.77017 0 0 .77765 -44.286 -35.084)"><g transform="translate(-16.962 -80.444)"><g transform="rotate(45.057 102.07 158.14)" fill="url(#linearGradient189)" stroke="#272727" stroke-opacity=".98753"><path d="m97.345 136.86-0.47882 0.0938-0.31766 0.12528-0.21298 0.13758-0.22282 0.16731-0.18811 0.16095-0.13162 0.15371-0.15546 0.17157-0.15598 0.20765-0.15494 0.23441-0.1197 0.2429v4.9548h16.664v-4.8418l-0.12644-0.43144-0.15287-0.26031-0.16738-0.17453-0.20469-0.1826-0.1964-0.15415-0.18759-0.10786-0.20934-0.12739-0.25341-0.12782-0.28604-0.12697-0.34823-0.11508z" fill="url(#linearGradient58)" stroke-width=".5"/><rect x="99.597" y="143.52" width="7.8834" height="8.8789" fill="url(#linearGradient120)" stroke-width=".5"/><g stroke-width=".18467"><path d="m107.29 150.97 1.0519 0.4361-0.67201 0.57238-7.6259 0.89945-1.081-0.29982 0.90575-0.65414z" fill="url(#linearGradient175)"/><path d="m107.29 152.02 1.0519 0.4361-0.67201 0.57238-7.6259 0.89945-1.081-0.29982 0.90575-0.65414z" fill="url(#linearGradient174)"/><path d="m107.29 153.07 1.0519 0.4361-0.67201 0.57238-7.6259 0.89945-1.081-0.29982 0.90575-0.65414z" fill="url(#linearGradient179)"/><path d="m107.29 154.12 1.0519 0.4361-0.67201 0.57238-7.6259 0.89945-1.081-0.29982 0.90575-0.65414z" fill="url(#linearGradient172)"/><path d="m107.29 155.18 1.0519 0.4361-0.67201 0.57238-7.6259 0.89945-1.081-0.29982 0.90575-0.65414z" fill="url(#linearGradient171)"/><path d="m107.29 156.16 1.0519 0.4361-0.67201 0.57238-7.6259 0.89945-1.081-0.29982 0.90575-0.65414z" fill="url(#linearGradient170)"/><path d="m107.29 157.18 1.0519 0.4361-0.67201 0.57238-7.6259 0.89945-1.081-0.29982 0.90575-0.65414z" fill="url(#linearGradient180)"/><path d="m107.29 158.2 1.0519 0.4361-0.67201 0.57238-7.6259 0.89945-1.081-0.29982 0.90575-0.65414z" fill="url(#linearGradient168)"/><path d="m107.29 159.2 1.0519 0.4361-0.67201 0.57238-7.6259 0.89945-1.081-0.29982 0.90575-0.65414z" fill="url(#linearGradient167)"/><path d="m107.29 160.17 1.0519 0.4361-0.67201 0.57238-7.6259 0.89945-1.081-0.29982 0.90575-0.65414z" fill="url(#linearGradient166)"/><path d="m107.29 161.17 1.0519 0.4361-0.67201 0.57238-7.6259 0.89945-1.081-0.29982 0.90575-0.65414z" fill="url(#linearGradient165)"/><path d="m107.29 162.15 1.0519 0.4361-0.67201 0.57238-7.6259 0.89945-1.081-0.29982 0.90575-0.65414z" fill="url(#linearGradient164)"/><path d="m107.29 163.17 1.0519 0.4361-0.67201 0.57238-7.6259 0.89945-1.081-0.29982 0.90575-0.65414z" fill="url(#linearGradient163)"/><path d="m107.29 164.16 1.0519 0.4361-0.67201 0.57238-7.6259 0.89945-1.081-0.29982 0.90575-0.65414z" fill="url(#linearGradient162)"/><path d="m107.29 165.18 1.0519 0.4361-0.67201 0.57238-7.6259 0.89945-1.081-0.29982 0.90575-0.65414z" fill="url(#linearGradient161)"/></g><path d="m107.29 166.2 1.0519 0.4361-0.67201 0.57238-7.6259 0.89945-1.081-0.29982 0.90575-0.65414z" fill="url(#linearGradient160)" stroke-width=".185"/><g stroke-width=".18467"><path d="m107.29 167.19 1.0519 0.4361-0.67201 0.57238-7.6259 0.89945-1.081-0.29982 0.90575-0.65414z" fill="url(#linearGradient187)"/><path d="m107.29 168.17 1.0519 0.4361-0.67201 0.57238-7.6259 0.89945-1.081-0.29982 0.90575-0.65414z" fill="url(#linearGradient158)"/><path d="m107.29 169.17 1.0519 0.4361-0.67201 0.57238-7.6259 0.89945-1.081-0.29982 0.90575-0.65414z" fill="url(#linearGradient157)"/><path d="m107.29 170.18 1.0519 0.4361-0.67201 0.57238-7.6259 0.89945-1.081-0.29982 0.90575-0.65414z" fill="url(#linearGradient156)"/><path d="m107.29 171.15 1.0519 0.4361-0.67201 0.57238-7.6259 0.89945-1.081-0.29982 0.90575-0.65414z" fill="url(#linearGradient155)"/><path d="m107.29 172.2 1.0519 0.4361-0.67201 0.57238-7.6259 0.89945-1.081-0.29982 0.90575-0.65414z" fill="url(#linearGradient154)"/><path d="m107.29 173.16 1.0519 0.4361-0.67201 0.57238-7.6259 0.89945-1.081-0.29982 0.90575-0.65414z" fill="url(#linearGradient2)"/></g><path d="m100.04 175.07 7.5878-0.22514v-0.71019z" fill="url(#linearGradient96)" stroke-width=".2"/><path d="m107.32 151-7.5878 0.22514v0.71019z" fill="url(#linearGradient95)" stroke-width=".2"/></g><rect transform="matrix(.72794 .68564 -.67544 .73741 0 0)" x="179.91" y="45.037" width="7.8028" height="4.5434" fill="url(#linearGradient191)"/><rect transform="matrix(-.74545 -.66656 .65612 -.75465 0 0)" x="-186.85" y="-42.675" width="7.8028" height="4.5434" fill="url(#linearGradient192)"/><g transform="rotate(-44.943 106.89 152.78)" fill="url(#linearGradient689)"><g stroke="#333"><path d="m97.345 136.86-0.47882 0.0938-0.31766 0.12528-0.21298 0.13758-0.22282 0.16731-0.18811 0.16095-0.13162 0.15371-0.15546 0.17157-0.15598 0.20765-0.15494 0.23441-0.1197 0.2429v4.9548h16.664v-4.8418l-0.12644-0.43144-0.15287-0.26031-0.16738-0.17453-0.20469-0.1826-0.1964-0.15415-0.18759-0.10786-0.20934-0.12739-0.25341-0.12782-0.28604-0.12697-0.34823-0.11508z" fill="url(#linearGradient58)" stroke-width=".5"/><rect x="99.597" y="143.52" width="7.8834" height="8.8789" fill="url(#linearGradient120)" stroke-width=".5"/><g stroke-width=".18467"><path d="m107.29 150.97 1.0519 0.4361-0.67201 0.57238-7.6259 0.89945-1.081-0.29982 0.90575-0.65414z" fill="url(#linearGradient175)"/><path d="m107.29 152.02 1.0519 0.4361-0.67201 0.57238-7.6259 0.89945-1.081-0.29982 0.90575-0.65414z" fill="url(#linearGradient174)"/><path d="m107.29 153.07 1.0519 0.4361-0.67201 0.57238-7.6259 0.89945-1.081-0.29982 0.90575-0.65414z" fill="url(#linearGradient179)"/><path d="m107.29 154.12 1.0519 0.4361-0.67201 0.57238-7.6259 0.89945-1.081-0.29982 0.90575-0.65414z" fill="url(#linearGradient172)"/><path d="m107.29 155.18 1.0519 0.4361-0.67201 0.57238-7.6259 0.89945-1.081-0.29982 0.90575-0.65414z" fill="url(#linearGradient171)"/><path d="m107.29 156.16 1.0519 0.4361-0.67201 0.57238-7.6259 0.89945-1.081-0.29982 0.90575-0.65414z" fill="url(#linearGradient170)"/><path d="m107.29 157.18 1.0519 0.4361-0.67201 0.57238-7.6259 0.89945-1.081-0.29982 0.90575-0.65414z" fill="url(#linearGradient180)"/><path d="m107.29 158.2 1.0519 0.4361-0.67201 0.57238-7.6259 0.89945-1.081-0.29982 0.90575-0.65414z" fill="url(#linearGradient168)"/><path d="m107.29 159.2 1.0519 0.4361-0.67201 0.57238-7.6259 0.89945-1.081-0.29982 0.90575-0.65414z" fill="url(#linearGradient167)"/><path d="m107.29 160.17 1.0519 0.4361-0.67201 0.57238-7.6259 0.89945-1.081-0.29982 0.90575-0.65414z" fill="url(#linearGradient166)"/><path d="m107.29 161.17 1.0519 0.4361-0.67201 0.57238-7.6259 0.89945-1.081-0.29982 0.90575-0.65414z" fill="url(#linearGradient165)"/><path d="m107.29 162.15 1.0519 0.4361-0.67201 0.57238-7.6259 0.89945-1.081-0.29982 0.90575-0.65414z" fill="url(#linearGradient164)"/><path d="m107.29 163.17 1.0519 0.4361-0.67201 0.57238-7.6259 0.89945-1.081-0.29982 0.90575-0.65414z" fill="url(#linearGradient163)"/><path d="m107.29 164.16 1.0519 0.4361-0.67201 0.57238-7.6259 0.89945-1.081-0.29982 0.90575-0.65414z" fill="url(#linearGradient162)"/><path d="m107.29 165.18 1.0519 0.4361-0.67201 0.57238-7.6259 0.89945-1.081-0.29982 0.90575-0.65414z" fill="url(#linearGradient161)"/></g></g><g stroke="#000" stroke-opacity=".94595"><path d="m107.29 166.2 1.0519 0.4361-0.67201 0.57238-7.6259 0.89945-1.081-0.29982 0.90575-0.65414z" fill="url(#linearGradient160)" stroke-width=".185"/><g stroke-width=".18467"><path d="m107.29 167.19 1.0519 0.4361-0.67201 0.57238-7.6259 0.89945-1.081-0.29982 0.90575-0.65414z" fill="url(#linearGradient187)"/><path d="m107.29 168.17 1.0519 0.4361-0.67201 0.57238-7.6259 0.89945-1.081-0.29982 0.90575-0.65414z" fill="url(#linearGradient158)"/><path d="m107.29 169.17 1.0519 0.4361-0.67201 0.57238-7.6259 0.89945-1.081-0.29982 0.90575-0.65414z" fill="url(#linearGradient157)"/><path d="m107.29 170.18 1.0519 0.4361-0.67201 0.57238-7.6259 0.89945-1.081-0.29982 0.90575-0.65414z" fill="url(#linearGradient156)"/></g></g><g stroke-width=".18467"><path d="m107.29 171.15 1.0519 0.4361-0.67201 0.57238-7.6259 0.89945-1.081-0.29982 0.90575-0.65414z" fill="url(#linearGradient155)" stroke="#333"/><path d="m107.29 172.2 1.0519 0.4361-0.67201 0.57238-7.6259 0.89945-1.081-0.29982 0.90575-0.65414z" fill="url(#linearGradient154)" stroke="#333"/><path d="m107.29 173.16 1.0519 0.4361-0.67201 0.57238-7.6259 0.89945-1.081-0.29982 0.90575-0.65414z" fill="url(#linearGradient2)" stroke="#000" stroke-opacity=".94595"/></g><path d="m100.04 175.07 7.5878-0.22514v-0.71019z" fill="url(#linearGradient96)" stroke="#333" stroke-width=".2"/><path d="m107.32 151-7.5878 0.22514v0.71019z" fill="url(#linearGradient95)" stroke="#333" stroke-width=".2"/></g><rect transform="matrix(.70388 -.71032 .72004 .69393 0 0)" x="-42.795" y="174.39" width="7.8028" height="4.5434" fill="url(#linearGradient200)"/><rect transform="matrix(.69577 .71826 -.70851 .7057 0 0)" x="181.47" y="22.244" width="7.8028" height="4.5434" fill="url(#linearGradient201)"/></g></g></svg>
